<svg id="Layer_1" data-name="Layer 1" xmlns="http://www.w3.org/2000/svg" width="1200" height="800" viewBox="0 0 1200 800"><title>Artboard 1 copy</title><rect x="2" y="2" width="1196" height="796" fill="#e2e2e2"/><g id="_Group_" data-name="&lt;Group&gt;"><path d="M575.6,494.2a208.4,208.4,0,0,1-96.2-175.6c0-115.2,93.5-208.6,208.6-208.6s208.5,93.5,208.5,208.6a208.5,208.5,0,0,1-96.1,175.6C884.4,549.1,945.1,663.8,956,800H420C430.9,663.8,491.7,549.1,575.6,494.2Z" fill="#999"/></g><g id="_Group_2" data-name="&lt;Group&gt;"><path d="M512.1,150A168.6,168.6,0,0,1,659.3,400.6a170.4,170.4,0,0,1-56.4,60,40,40,0,0,0-.3,67.1c66,43.2,114.7,130,132.1,232.3H289.3c17.4-102.3,66.2-189,132.3-232.3a40,40,0,0,0-.3-67.1,170,170,0,0,1-56.4-59.9A168.6,168.6,0,0,1,512.1,150m0-40c-115.2,0-208.6,93.5-208.6,208.6a208.4,208.4,0,0,0,96.2,175.6C315.7,549.1,254.9,663.8,244,800H780c-10.9-136.2-71.6-250.9-155.5-305.8a208.5,208.5,0,0,0,96.1-175.6c0-115.2-93.3-208.6-208.5-208.6Z" fill="#999"/></g><path d="M1196,4V796H4V4H1196m4-4H0V800H1200V0Z" fill="#666"/></svg>