<svg id="Layer_1" data-name="Layer 1" xmlns="http://www.w3.org/2000/svg" width="256" height="256" viewBox="0 0 256 256"><title>people</title><circle cx="127" cy="127" r="110" fill="#e2e2e2" stroke="#666" stroke-miterlimit="10" stroke-width="4"/><g id="_Group_" data-name=" Group "><path d="M109.4,66.8c16.1,0,29.2,13.6,29.2,30.3a30.4,30.4,0,0,1-13.6,25.5,10.7,10.7,0,0,0-.1,17.9c11.3,7.6,19.8,22.6,23.4,40.4h-78c3.6-17.9,12.2-32.8,23.5-40.4a10.7,10.7,0,0,0-.1-17.9A30.4,30.4,0,0,1,80.2,97c0-16.7,13.1-30.3,29.2-30.3m0-10.7c-22,0-39.9,18.4-39.9,41a41.2,41.2,0,0,0,18.4,34.5c-16,10.8-27.7,33.3-29.8,60.1H160.8c-2.1-26.8-13.7-49.3-29.8-60.1A41.2,41.2,0,0,0,149.4,97C149.4,74.4,131.5,56,109.4,56Z" fill="#999"/></g><path d="M95.6,186.3c3-22,13-41,26.9-50.3a5.4,5.4,0,0,0-.1-8.9,35.7,35.7,0,0,1-16-30c0-19.7,15.5-35.6,34.6-35.6s34.6,16,34.6,35.6a35.8,35.8,0,0,1-16,30,5.4,5.4,0,0,0-.1,8.9c13.8,9.3,23.8,28.2,26.8,50.3Z" fill="#999"/><path d="M141,66.8c16.1,0,29.2,13.6,29.2,30.3a30.4,30.4,0,0,1-13.6,25.5,10.7,10.7,0,0,0-.1,17.9c11.3,7.6,19.8,22.6,23.4,40.4H102c3.6-17.9,12.2-32.8,23.5-40.4a10.7,10.7,0,0,0-.1-17.9A30.4,30.4,0,0,1,111.9,97c-.1-16.6,13-30.2,29.1-30.2M141,56c-22,0-39.9,18.4-39.9,41a41.2,41.2,0,0,0,18.4,34.5c-16,10.8-27.7,33.3-29.8,60.1H192.4c-2.1-26.8-13.7-49.3-29.8-60.1A41.2,41.2,0,0,0,180.9,97C180.9,74.4,163.1,56,141,56Z" fill="#999"/></svg>