<svg id="Layer_1" data-name="Layer 1" xmlns="http://www.w3.org/2000/svg" width="1600" height="900" viewBox="0 0 1600 900"><title>Artboard 1 copy</title><rect x="2" y="2" width="1596" height="896" fill="#e2e2e2"/><g id="_Group_" data-name="&lt;Group&gt;"><path d="M1039.5,531.3a251.3,251.3,0,0,0,116-211.7C1155.5,180.7,1042.8,68,903.9,68S652.5,180.7,652.5,319.6c0,88.8,46.1,166.9,115.8,211.7C667.2,597.5,594,735.7,580.8,900h646.3C1214,735.7,1140.7,597.5,1039.5,531.3Z" fill="#999"/></g><g id="_Group_2" data-name="&lt;Group&gt;"><path d="M695.9,118A201.5,201.5,0,0,1,872,417.6a203.2,203.2,0,0,1-67.5,71.6,50,50,0,0,0-.4,83.9c42.9,28.1,80.9,72.6,109.8,128.7,22.8,44.3,39.3,94.8,48.6,148.2h-533c9.3-53.4,25.8-103.9,48.6-148.3,28.8-56,66.7-100.5,109.7-128.6a50,50,0,0,0-.3-83.9,203.7,203.7,0,0,1-67.4-71.7A201.5,201.5,0,0,1,695.9,118m0-50C557,68,444.5,180.7,444.5,319.6c0,88.8,46.1,166.9,115.8,211.7C459.2,597.5,386,735.7,372.8,900h646.3C1006,735.7,932.7,597.5,831.5,531.3a251.3,251.3,0,0,0,116-211.7C947.5,180.7,834.8,68,695.9,68Z" fill="#999"/></g><path d="M1596,4V896H4V4H1596m4-4H0V900H1600V0Z" fill="#666"/></svg>